<?xml version="1.0" encoding="UTF-8" standalone="no"?>
<!DOCTYPE svg PUBLIC "-//W3C//DTD SVG 1.1//EN" "http://www.w3.org/Graphics/SVG/1.1/DTD/svg11.dtd">
<svg width="100%" height="100%" viewBox="0 0 300 300" version="1.1" xmlns="http://www.w3.org/2000/svg" xmlns:xlink="http://www.w3.org/1999/xlink" xml:space="preserve" xmlns:serif="http://www.serif.com/" style="fill-rule:evenodd;clip-rule:evenodd;stroke-linejoin:round;stroke-miterlimit:2;">
    <g id="homey_warning.svg" transform="matrix(2.08333,0,0,2.08333,240,240)">
        <g transform="matrix(1,0,0,1,-24,-24)">
            <clipPath id="_clip1">
                <rect x="0" y="0" width="48" height="48"/>
            </clipPath>
            <g clip-path="url(#_clip1)">
                <path d="M47.498,41.406L27.831,2.41C27.123,0.94 25.629,0.001 23.998,0.001C22.366,0.001 20.872,0.94 20.164,2.41L0.5,41.406C-1.01,44.403 1.08,48 4.334,48L43.668,48C46.918,47.996 49.012,44.403 47.498,41.406ZM21.871,16.106C21.871,14.841 22.856,13.816 24.072,13.816C25.288,13.816 26.273,14.841 26.273,16.106L26.273,29.249C26.273,30.513 25.288,31.539 24.073,31.539C22.856,31.539 21.871,30.513 21.871,29.249L21.871,16.106ZM24,41.328C22.246,41.328 20.823,39.848 20.823,38.024C20.823,36.199 22.246,34.72 24,34.72C25.754,34.72 27.177,36.199 27.177,38.024C27.177,39.849 25.754,41.328 24,41.328Z" style="fill:rgb(49,49,50);"/>
            </g>
        </g>
    </g>
    <path d="M83.394,10C74.22,10 66.881,17.339 66.881,26.514C66.881,35.688 74.22,43.028 83.394,43.028C92.569,43.028 99.908,35.688 99.908,26.514C99.908,17.339 92.569,10 83.394,10" style="fill-rule:nonzero;"/>
    <g transform="matrix(1,0,0,1,7.33945,-7.33945)">
        <path d="M135.413,17.339C135.413,54.23 165.77,84.587 202.661,84.587L202.661,72.385C172.463,72.385 147.615,47.537 147.615,17.339L135.413,17.339" style="fill-rule:nonzero;"/>
    </g>
    <g transform="matrix(1,0,0,1,7.33945,-7.33945)">
        <path d="M159.817,17.339C159.817,41.009 178.991,60.183 202.661,60.183L202.661,47.89C185.78,47.89 172.11,34.22 172.11,17.339L159.817,17.339" style="fill-rule:nonzero;"/>
    </g>
    <g transform="matrix(1,0,0,1,7.33945,-7.33945)">
        <path d="M184.312,17.339C184.312,27.405 192.595,35.688 202.661,35.688L202.661,17.339L184.312,17.339" style="fill-rule:nonzero;"/>
    </g>
    <path d="M64.312,45.138C62.752,45.138 61.193,45.413 59.725,45.872L10,61.376L10,109.083L26.514,109.083L26.514,75.413L45.872,69.358L10,210L26.514,210L52.844,135.596L74.22,164.128L74.22,210L90.734,210L90.734,151.193L67.89,109.541L74.587,83.211L84.495,99.908L129.266,99.908L129.266,83.394L96.055,83.394L77.706,52.844C74.954,48.257 70,45.138 64.312,45.138Z" style="fill-rule:nonzero;"/>
</svg>
